<?xml version="1.0" encoding="UTF-8"?>
<!-- Creator: CorelDRAW 2019 (64-Bit) -->
<svg xmlns="http://www.w3.org/2000/svg" xmlns:xlink="http://www.w3.org/1999/xlink" xmlns:xodm="http://www.corel.com/coreldraw/odm/2003" xml:space="preserve" width="266px" height="118px" style="shape-rendering:geometricPrecision; text-rendering:geometricPrecision; image-rendering:optimizeQuality; fill-rule:evenodd; clip-rule:evenodd" viewBox="0 0 179.67 79.83"> <defs> <style type="text/css"> <![CDATA[ .fil0 {fill:white} .fil1 {fill:#074578;fill-rule:nonzero} .fil2 {fill:#FF984F;fill-rule:nonzero} ]]> </style> </defs> <g id="Слой_x0020_1"> <metadata id="CorelCorpID_0Corel-Layer"/> <g id="_1754694299984"> <g> <path class="fil0" d="M39.92 1.49l99.83 0c21.13,0 38.43,17.3 38.43,38.43 0,21.12 -17.3,38.42 -38.43,38.42l-99.83 0c-21.13,0 -38.43,-17.3 -38.43,-38.42 0,-21.13 17.3,-38.43 38.43,-38.43z"/> <path id="1" class="fil1" d="M139.75 2.98l-99.83 0 0 -2.98 99.83 0 0 0 0 2.98zm39.92 36.94l-2.98 0 0 0 -0.05 -1.9 -0.14 -1.86 -0.24 -1.85 -0.33 -1.81 -0.41 -1.78 -0.5 -1.75 -0.58 -1.71 -0.67 -1.68 -0.74 -1.63 -0.82 -1.59 -0.89 -1.55 -0.96 -1.5 -1.04 -1.45 -1.1 -1.4 -1.16 -1.34 -1.23 -1.28 -1.28 -1.23 -1.34 -1.16 -1.4 -1.1 -1.45 -1.04 -1.5 -0.96 -1.55 -0.89 -1.59 -0.82 -1.63 -0.74 -1.68 -0.67 -1.71 -0.58 -1.75 -0.5 -1.78 -0.41 -1.81 -0.33 -1.84 -0.23 -1.87 -0.15 -1.9 -0.05 0 -2.98 2.05 0.05 2.02 0.16 1.99 0.25 1.96 0.36 1.93 0.44 1.89 0.54 1.85 0.63 1.81 0.72 1.77 0.8 1.72 0.89 1.67 0.96 1.62 1.04 1.57 1.12 1.51 1.19 1.45 1.25 1.38 1.33 1.33 1.38 1.25 1.45 1.19 1.51 1.12 1.57 1.04 1.62 0.96 1.67 0.89 1.72 0.8 1.77 0.72 1.81 0.63 1.85 0.54 1.89 0.45 1.93 0.35 1.96 0.25 1.99 0.16 2.02 0.05 2.05 0 0zm-39.92 39.91l0 -2.98 0 0 1.9 -0.05 1.87 -0.14 1.84 -0.24 1.81 -0.32 1.78 -0.42 1.75 -0.5 1.71 -0.58 1.68 -0.66 1.63 -0.75 1.59 -0.82 1.55 -0.89 1.5 -0.96 1.45 -1.03 1.4 -1.1 1.34 -1.17 1.28 -1.22 1.23 -1.29 1.16 -1.34 1.1 -1.4 1.04 -1.45 0.96 -1.5 0.89 -1.54 0.82 -1.6 0.74 -1.63 0.67 -1.67 0.58 -1.72 0.5 -1.74 0.41 -1.79 0.33 -1.81 0.24 -1.84 0.14 -1.87 0.05 -1.89 2.98 0 -0.05 2.04 -0.16 2.02 -0.25 1.99 -0.35 1.96 -0.45 1.93 -0.54 1.89 -0.63 1.86 -0.72 1.81 -0.8 1.76 -0.89 1.72 -0.96 1.68 -1.04 1.62 -1.12 1.56 -1.19 1.51 -1.25 1.45 -1.33 1.39 -1.38 1.32 -1.45 1.26 -1.51 1.18 -1.57 1.12 -1.62 1.04 -1.67 0.97 -1.72 0.88 -1.77 0.8 -1.81 0.72 -1.85 0.63 -1.89 0.54 -1.93 0.45 -1.96 0.35 -1.99 0.26 -2.02 0.15 -2.05 0.05 0 0zm-99.83 -2.98l99.83 0 0 2.98 -99.83 0 0 0 0 -2.98zm-39.92 -36.93l2.98 0 0 0 0.05 1.89 0.14 1.87 0.24 1.84 0.33 1.81 0.41 1.78 0.5 1.75 0.58 1.72 0.67 1.67 0.74 1.63 0.82 1.6 0.89 1.54 0.96 1.5 1.04 1.45 1.1 1.4 1.16 1.34 1.23 1.29 1.28 1.22 1.34 1.17 1.4 1.1 1.45 1.03 1.5 0.96 1.55 0.9 1.59 0.81 1.63 0.75 1.68 0.66 1.71 0.58 1.75 0.5 1.78 0.42 1.81 0.32 1.84 0.24 1.87 0.14 1.9 0.05 0 2.98 -2.05 -0.05 -2.02 -0.15 -1.99 -0.26 -1.96 -0.35 -1.93 -0.45 -1.89 -0.54 -1.85 -0.63 -1.81 -0.72 -1.77 -0.8 -1.72 -0.89 -1.67 -0.96 -1.62 -1.04 -1.57 -1.12 -1.51 -1.18 -1.45 -1.26 -1.38 -1.32 -1.33 -1.39 -1.25 -1.45 -1.19 -1.51 -1.12 -1.57 -1.04 -1.61 -0.96 -1.68 -0.89 -1.72 -0.8 -1.76 -0.72 -1.81 -0.63 -1.86 -0.54 -1.89 -0.45 -1.93 -0.35 -1.96 -0.25 -1.99 -0.16 -2.02 -0.05 -2.04 0 0zm39.92 -39.92l0 2.98 0 0 -1.9 0.05 -1.87 0.15 -1.84 0.23 -1.81 0.33 -1.78 0.41 -1.75 0.5 -1.71 0.58 -1.68 0.67 -1.63 0.74 -1.59 0.82 -1.55 0.89 -1.5 0.96 -1.45 1.04 -1.4 1.1 -1.34 1.16 -1.29 1.23 -1.22 1.28 -1.17 1.34 -1.09 1.4 -1.04 1.45 -0.96 1.5 -0.89 1.55 -0.82 1.59 -0.74 1.63 -0.67 1.68 -0.58 1.71 -0.5 1.75 -0.41 1.78 -0.33 1.81 -0.24 1.85 -0.14 1.86 -0.05 1.9 -2.98 0 0.05 -2.05 0.16 -2.02 0.25 -1.99 0.35 -1.96 0.45 -1.93 0.54 -1.89 0.63 -1.85 0.72 -1.81 0.8 -1.77 0.89 -1.72 0.96 -1.67 1.04 -1.62 1.12 -1.57 1.18 -1.51 1.26 -1.45 1.32 -1.38 1.39 -1.33 1.45 -1.25 1.51 -1.19 1.57 -1.12 1.62 -1.04 1.67 -0.96 1.72 -0.89 1.76 -0.8 1.82 -0.72 1.85 -0.63 1.89 -0.54 1.93 -0.44 1.96 -0.36 1.99 -0.25 2.02 -0.16 2.05 -0.05 0 0z"/> </g> <path class="fil2" d="M84.72 22.11c0,-2.94 -1.12,-6.04 -3.46,-8.25 -2.25,-2.14 -5.41,-3.26 -8.68,-3.26 -3.26,0 -6.43,1.12 -8.67,3.26 -2.34,2.21 -3.46,5.31 -3.46,8.25 0,2.9 1.12,5.97 3.46,8.21 2.24,2.14 5.41,3.26 8.67,3.26 3.27,0 6.43,-1.12 8.68,-3.26 2.34,-2.24 3.46,-5.31 3.46,-8.21zm-12.14 -5.97c1.52,0 3.2,0.59 4.42,1.75 1.02,0.99 1.78,2.5 1.78,4.22 0,1.68 -0.76,3.2 -1.78,4.22 -1.02,1.02 -2.47,1.71 -4.42,1.71 -1.91,0 -3.4,-0.72 -4.45,-1.74 -0.82,-0.8 -1.75,-2.15 -1.75,-4.09 0,-1.55 0.56,-3.17 1.75,-4.32 1.19,-1.19 2.87,-1.75 4.45,-1.75zm15.65 2.21l0 9.2c0,1.42 0.27,2.74 1.39,3.92 1.75,1.88 4.45,2.11 6.66,2.11 2.01,0 4.55,-0.19 6.37,-2.07 1.32,-1.36 1.42,-2.71 1.42,-3.96l0 -9.2 -5.28 0 0 8.24c0,0.66 -0.1,1.42 -0.76,2.08 -0.59,0.56 -1.22,0.63 -1.88,0.63 -0.63,0 -1.32,-0.1 -1.85,-0.56 -0.69,-0.63 -0.79,-1.55 -0.79,-2.15l0 -8.24 -5.28 0zm19.85 14.74l5.27 0 0 -6.3c0,-0.79 0.07,-2.34 1.19,-3.36 0.76,-0.7 1.72,-0.8 2.41,-0.8 1.29,0 2.01,0.4 2.27,0.53l0 -4.98c-0.69,-0.03 -0.92,-0.06 -1.05,-0.06 -0.99,0 -1.95,0.16 -2.74,0.59 -0.79,0.4 -1.55,1.06 -2.08,2.04l0 -2.4 -5.27 0 0 14.74z"/> <path class="fil2" d="M34.73 59.95c1.65,1.72 3.63,1.91 4.59,1.91 1.48,0 3.4,-0.42 5.05,-2.04 1.41,-1.39 2.37,-3.36 2.37,-5.84 0,-2.54 -1.02,-4.48 -2.24,-5.7 -1.19,-1.19 -2.97,-2.15 -5.25,-2.15 -2.17,0 -3.59,0.96 -4.52,2.11l0 -1.61 -5.27 0 0 22.29 5.27 0 0 -8.97zm3.24 -9.33c0.92,0 1.74,0.36 2.34,0.99 0.66,0.66 1.02,1.61 1.02,2.44 0,0.89 -0.46,1.78 -1.02,2.34 -0.6,0.63 -1.42,0.99 -2.34,0.99 -0.89,0 -1.75,-0.36 -2.38,-0.99 -0.56,-0.56 -1.02,-1.48 -1.02,-2.34 0,-0.83 0.36,-1.78 1.02,-2.44 0.63,-0.63 1.49,-0.99 2.38,-0.99zm12.19 10.75l5.27 0 0 -6.3c0,-0.79 0.07,-2.34 1.19,-3.36 0.76,-0.7 1.72,-0.8 2.41,-0.8 1.28,0 2.01,0.4 2.28,0.53l0 -4.98c-0.7,-0.03 -0.93,-0.06 -1.06,-0.06 -0.99,0 -1.95,0.16 -2.74,0.59 -0.79,0.4 -1.55,1.06 -2.08,2.04l0 -2.4 -5.27 0 0 14.74zm21.49 -10.75c0.82,0 1.75,0.39 2.34,0.95 0.66,0.66 1.02,1.62 1.02,2.41 0,0.86 -0.36,1.72 -1.02,2.34 -0.63,0.63 -1.48,0.99 -2.34,0.99 -0.89,0 -1.75,-0.36 -2.38,-0.99 -0.59,-0.59 -1.02,-1.45 -1.02,-2.34 0,-0.86 0.36,-1.78 1.02,-2.41 0.6,-0.56 1.52,-0.95 2.38,-0.95zm8.84 3.36c0,-2.64 -1.19,-4.35 -2.28,-5.41 -1.22,-1.15 -3.33,-2.44 -6.59,-2.44 -3.2,0 -5.35,1.26 -6.57,2.44 -1.09,1.06 -2.27,2.77 -2.27,5.41 0,1.98 0.66,3.86 2.27,5.44 2.05,2.02 4.42,2.44 6.57,2.44 2.37,0 4.65,-0.52 6.59,-2.44 1.62,-1.58 2.28,-3.46 2.28,-5.44zm3.42 -7.35l0 22.29 5.27 0 0 -22.29 -5.27 0zm-0.33 -6.14c0,1.65 1.31,2.97 2.96,2.97 1.65,0 2.97,-1.32 2.97,-2.97 0,-1.65 -1.32,-2.96 -2.97,-2.96 -1.65,0 -2.96,1.31 -2.96,2.96zm25.21 13.92c0,-1.65 -0.26,-4.22 -2.34,-6.2 -1.75,-1.65 -3.96,-2.01 -5.67,-2.01 -2.9,0 -4.82,0.96 -6.04,2.14 -1.28,1.26 -2.21,3.23 -2.21,5.71 0,2.8 1.22,4.62 2.18,5.57 1.81,1.82 4.16,2.24 6.1,2.24 3.2,0 4.92,-0.99 6,-2.04 1.09,-1.06 1.55,-2.21 1.78,-3.03l-5.04 0c-0.23,0.46 -0.59,0.79 -0.92,0.98 -0.66,0.37 -1.59,0.4 -1.72,0.4 -1.19,0 -1.85,-0.4 -2.18,-0.73 -0.62,-0.62 -0.92,-1.68 -0.92,-2.47l10.98 0 0 -0.56zm-10.81 -2.47c0.09,-0.66 0.42,-1.19 0.79,-1.58 0.56,-0.57 1.25,-0.8 2.14,-0.8 0.53,0 1.48,0.1 2.18,0.8 0.39,0.39 0.72,1.02 0.85,1.58l-5.96 0zm25.38 4.68c-0.96,0.82 -1.95,0.99 -2.71,0.99 -1.35,0 -2.21,-0.59 -2.7,-1.12 -0.63,-0.69 -0.92,-1.65 -0.92,-2.47 0,-0.86 0.29,-1.82 1.02,-2.54 0.53,-0.53 1.32,-1.03 2.57,-1.03 1.12,0 2.05,0.46 2.74,0.96l0 -4.42c-1.32,-0.66 -2.51,-0.82 -3.43,-0.82 -2.51,0 -4.55,0.92 -5.94,2.24 -1.48,1.45 -2.37,3.53 -2.37,5.7 0,2.18 0.89,4.16 2.27,5.51 1.06,1.02 2.94,2.24 5.81,2.24 1.09,0 2.24,-0.13 3.66,-0.82l0 -4.42zm12.55 -5.67l0 -4.32 -3 0 0 -4.85 -5.28 0 0 4.85 -1.68 0 0 4.32 1.68 0 0 10.42 5.28 0 0 -10.42 3 0zm1.44 9.2c2.54,1.55 4.62,1.71 5.94,1.71 1.22,0 3.72,-0.13 5.44,-1.84 0.72,-0.7 1.48,-1.88 1.48,-3.66 0,-1.09 -0.39,-2.25 -1.12,-2.94 -0.43,-0.43 -1.48,-0.96 -2.18,-1.15l-0.95 -0.27c-0.83,-0.23 -1.26,-0.23 -1.75,-0.43 -0.33,-0.13 -0.63,-0.36 -0.63,-0.82 0,-0.33 0.17,-0.56 0.47,-0.73 0.33,-0.19 0.69,-0.29 1.21,-0.29 0.96,0 2.05,0.39 2.78,0.72l1.78 -3.36c-0.86,-0.36 -2.54,-0.96 -4.72,-0.96 -2.18,0 -4.16,0.63 -5.28,1.78 -0.82,0.86 -1.38,2.18 -1.38,3.6 0,1.12 0.4,1.95 0.96,2.54 0.79,0.86 1.84,1.12 2.57,1.28l1.38 0.33c0.53,0.14 1.06,0.24 1.39,0.53 0.23,0.2 0.26,0.43 0.26,0.66 0,0.27 -0.03,0.46 -0.26,0.69 -0.33,0.3 -0.96,0.4 -1.35,0.4 -0.57,0 -1.39,-0.13 -2.05,-0.36 -0.72,-0.23 -1.48,-0.63 -2.11,-1.09l-1.88 3.66z"/> </g> </g> </svg>