<?xml version="1.0" encoding="UTF-8"?>
<svg xmlns="http://www.w3.org/2000/svg" width="44" height="44" viewBox="0 0 37 37" fill="none"> <circle cx="18.5" cy="18.5" r="17.5" fill="white" stroke="#074578" stroke-width="2"/> <g clip-path="url(#clip0)"> <path d="M27.4844 22.9441L24.8329 20.2926C23.8859 19.3456 22.2761 19.7244 21.8973 20.9555C21.6132 21.8078 20.6662 22.2812 19.814 22.0918C17.92 21.6183 15.3632 19.1562 14.8897 17.1676C14.6057 16.3153 15.1738 15.3683 16.0261 15.0843C17.2572 14.7055 17.636 13.0956 16.689 12.1487L14.0375 9.49716C13.2799 8.83428 12.1435 8.83428 11.4807 9.49716L9.68143 11.2964C7.8822 13.1903 9.87083 18.2093 14.3216 22.66C18.7723 27.1107 23.7912 29.1941 25.6852 27.3001L27.4844 25.5009C28.1473 24.7433 28.1473 23.607 27.4844 22.9441Z" fill="#FF8D41"/> </g> <defs> <clipPath id="clip0"> <rect width="19" height="19" fill="white" transform="translate(9 9)"/> </clipPath> </defs> </svg>